<svg version="1.1" id="Layer_1" xmlns="http://www.w3.org/2000/svg" xmlns:xlink="http://www.w3.org/1999/xlink" x="0px" y="0px"
	 width="100%" viewBox="0 0 1200 600" enable-background="new 0 0 1200 600" xml:space="preserve">
<path fill="#E69215" opacity="1.000000" stroke="none" 
	d="
M890.000000,601.000000 
	C593.333374,601.000000 297.166687,601.000000 1.000040,601.000000 
	C1.000026,401.000031 1.000026,201.000061 1.000013,1.000067 
	C400.999969,1.000044 800.999939,1.000044 1201.000000,1.000022 
	C1201.000000,200.999939 1201.000000,400.999878 1201.000000,600.999878 
	C1097.500000,601.000000 994.000000,601.000000 890.000000,601.000000 
M706.315247,318.443939 
	C706.520874,317.766113 706.726501,317.088257 706.841553,316.480316 
	C706.841553,316.480316 706.770935,316.390198 707.216125,315.592468 
	C707.475952,313.966492 707.961792,312.340698 707.962891,310.714569 
	C708.000488,253.752335 708.012512,196.790054 707.905945,139.827957 
	C707.902344,137.882507 706.642883,135.939423 705.808594,133.771378 
	C705.808594,133.771378 705.846497,133.498779 705.759399,132.804596 
	C705.401733,132.217606 705.044067,131.630600 704.882263,131.006958 
	C704.882263,131.006958 704.917908,131.203033 704.646790,130.766266 
	C704.414673,130.516418 704.182617,130.266586 703.506348,129.741745 
	C703.128235,129.387512 702.750183,129.033264 702.114563,128.085236 
	C700.847107,126.941864 699.579590,125.798485 697.871216,124.133675 
	C693.330078,122.798149 688.794434,120.322578 684.246948,120.300575 
	C628.832886,120.032425 573.416748,120.040688 518.002502,120.285301 
	C513.619934,120.304649 509.247559,122.614632 504.222565,124.056999 
	C497.566803,128.559128 494.864014,135.005112 494.871399,142.846298 
	C494.892426,165.171387 494.874268,187.496536 494.872040,209.821655 
	C494.868683,242.976135 494.883789,276.130646 494.849518,309.285095 
	C494.841492,317.050720 496.969849,323.714417 504.282288,328.701630 
	C508.847717,329.954193 513.408264,332.275787 517.979248,332.296509 
	C573.049988,332.546326 628.122437,332.417114 683.194214,332.495422 
	C691.585388,332.507355 698.476685,329.847290 704.088379,322.684326 
	C704.475403,322.198029 704.862488,321.711731 705.554016,320.685364 
	C705.678894,320.081146 705.803772,319.476898 706.003113,318.966370 
	C706.003113,318.966370 705.899597,319.026428 706.315247,318.443939 
M234.499863,332.598602 
	C305.303223,332.598358 376.106567,332.597961 446.909912,332.598206 
	C451.241241,332.598236 455.584930,332.784302 459.895935,332.489471 
	C461.106873,332.406647 463.168304,330.975555 463.224213,330.063812 
	C463.545349,324.827820 463.380493,319.562012 463.380493,314.191772 
	C369.419678,314.191772 276.230774,314.191772 182.544434,314.191772 
	C182.544434,318.718079 182.796036,322.874725 182.475235,326.986694 
	C182.139496,331.290192 183.532883,332.791565 188.020935,332.714294 
	C203.176758,332.453369 218.339661,332.604553 234.499863,332.598602 
M764.499878,330.565857 
	C844.321716,330.565948 924.143494,330.566498 1003.965332,330.564545 
	C1007.964661,330.564453 1011.974365,330.697266 1015.956848,330.432129 
	C1017.088867,330.356750 1019.046387,329.139191 1019.085571,328.367188 
	C1019.360168,322.961365 1019.231079,317.535034 1019.231079,311.738495 
	C1014.957520,311.738495 1011.479065,311.738495 1008.000671,311.738495 
	C920.180054,311.738647 832.359436,311.773773 744.539001,311.641449 
	C739.870850,311.634430 737.698730,312.605377 738.395386,317.636963 
	C738.757568,320.252777 738.732117,322.996246 738.391968,325.618530 
	C737.848022,329.812531 739.750549,330.744110 743.504761,330.621521 
	C750.163330,330.404114 756.834106,330.563599 764.499878,330.565857 
M396.694244,455.368774 
	C398.834473,442.829346 400.974701,430.289886 403.114929,417.750458 
	C404.512817,421.245239 404.880371,424.670105 404.914551,428.098267 
	C405.071960,443.876984 405.059845,459.657959 405.326447,475.434448 
	C405.361572,477.514221 406.032532,480.588348 407.467285,481.460052 
	C412.798187,484.698761 418.080414,481.261322 418.003296,475.094177 
	C417.641693,446.175201 417.296509,417.256042 416.944794,388.336945 
	C416.932648,387.337860 417.303528,386.048767 416.819611,385.396973 
	C415.618408,383.779144 414.252319,381.971436 412.520905,381.154114 
	C411.019440,380.445343 408.925781,380.980988 407.093903,380.983826 
	C399.224091,380.996033 399.190033,380.992920 397.909637,389.018280 
	C394.971863,407.431854 392.079529,425.852692 389.137543,444.265594 
	C388.908234,445.700714 388.435272,447.096893 388.075562,448.511169 
	C386.429779,446.290100 385.844818,444.236542 385.420135,442.150421 
	C381.999329,425.345886 378.596375,408.537750 375.213318,391.725586 
	C373.031250,380.881653 373.047729,381.054932 361.788147,380.887024 
	C357.279968,380.819824 355.671539,382.156647 355.725494,386.845001 
	C356.068115,416.639374 356.239990,446.436707 356.232208,476.233002 
	C356.230896,481.224487 358.687073,481.946136 362.735596,482.086609 
	C367.014252,482.235016 369.087250,481.224243 369.018280,476.295441 
	C368.768921,458.481354 368.929047,440.661499 368.934418,422.843842 
	C368.934998,420.929901 368.934509,419.015961 368.934509,417.102020 
	C370.511841,418.396423 371.062347,419.867432 371.378754,421.387177 
	C373.539490,431.765442 375.728973,442.138733 377.753998,452.543823 
	C379.406464,461.034546 380.605408,469.623108 382.581818,478.032837 
	C382.965637,479.666077 385.898376,481.412720 387.861694,481.700867 
	C389.081726,481.879852 391.584625,479.637634 391.971313,478.095764 
	C393.782410,470.874695 395.058746,463.519501 396.694244,455.368774 
M502.165100,437.523376 
	C505.503204,450.580536 508.864319,463.631927 512.168396,476.697662 
	C513.550659,482.163483 515.833191,483.133636 524.464539,481.990387 
	C529.242859,481.357483 527.801636,477.752533 527.769897,475.057007 
	C527.566467,457.761658 527.158508,440.468689 526.953186,423.173340 
	C526.809448,411.065277 526.812439,398.954224 526.890076,386.845398 
	C526.921692,381.916718 524.784546,380.259247 519.877747,380.351196 
	C514.994629,380.442657 514.093323,382.657806 514.180542,386.893188 
	C514.533630,404.030487 514.660400,421.172516 514.847290,438.313019 
	C514.863831,439.826355 514.711670,441.341553 514.637817,442.855896 
	C513.299316,441.537872 512.770996,440.200134 512.415771,438.817902 
	C508.438599,423.339844 504.306244,407.898499 500.584381,392.358948 
	C497.249969,378.437164 499.183685,381.434998 485.729980,380.931458 
	C481.812653,380.784851 480.286194,382.187164 480.412018,386.052124 
	C480.655701,393.535553 480.661499,401.026367 480.833618,408.512543 
	C481.350220,430.980560 481.847809,453.449249 482.472717,475.914337 
	C482.625732,481.415497 483.932678,482.205444 489.723938,482.058624 
	C494.455414,481.938660 495.432587,479.466766 495.263275,475.210175 
	C494.601715,458.579865 494.177338,441.939697 493.733154,425.301392 
	C493.607330,420.588562 493.713867,415.869537 493.713867,410.716034 
	C494.631378,411.338135 495.053192,411.464111 495.115326,411.689301 
	C497.416412,420.030548 499.684204,428.380981 502.165100,437.523376 
M869.733765,433.226807 
	C871.453613,429.859833 874.382568,426.588165 874.656860,423.107269 
	C875.357666,414.212769 875.668274,405.134094 874.654114,396.299072 
	C873.540833,386.600403 866.403198,381.252167 856.624329,381.015015 
	C851.299072,380.885864 845.968201,380.964294 840.639954,380.982513 
	C834.563171,381.003265 834.070557,381.418488 834.089355,387.508301 
	C834.182373,417.614349 834.313110,447.720306 834.469116,477.826080 
	C834.496521,483.117645 834.751709,483.022614 843.047974,483.101746 
	C847.526367,483.144470 848.260803,481.052856 848.120117,477.215607 
	C847.729797,466.572571 847.596558,455.919373 847.449646,445.268982 
	C847.429993,443.845245 847.918030,442.414520 848.170959,440.987030 
	C848.670654,440.939423 849.170349,440.891815 849.670044,440.844208 
	C850.433167,442.568207 851.314087,444.250549 851.940002,446.023010 
	C855.653076,456.536224 859.184570,467.116058 863.085144,477.558472 
	C863.856323,479.623230 865.776550,482.451599 867.505981,482.716797 
	C871.080688,483.265015 874.883545,482.324951 879.227722,481.940857 
	C878.460510,479.199310 878.119019,477.424713 877.474670,475.767914 
	C873.794800,466.307037 870.395813,456.713104 866.186646,447.490601 
	C863.543518,441.699463 863.251770,437.237396 869.733765,433.226807 
M965.349243,433.860260 
	C967.292358,430.262451 970.584961,426.782104 970.910339,423.043488 
	C971.697388,414.002045 971.869019,404.752777 970.846497,395.751129 
	C969.808350,386.612213 962.692932,381.310913 953.383545,381.029785 
	C947.557556,380.853821 941.713867,381.176727 935.893738,380.920959 
	C931.606567,380.732544 930.378235,382.719391 930.402466,386.607513 
	C930.593079,417.221680 930.733154,447.836243 930.791931,478.450897 
	C930.798523,481.897217 932.041870,483.394348 935.520325,483.039642 
	C937.003296,482.888428 938.520020,482.967804 940.014954,483.054810 
	C943.563354,483.261353 944.646362,481.443085 944.549194,478.142090 
	C944.235718,467.489594 944.044800,456.833221 943.862549,446.177399 
	C943.833679,444.492554 944.093384,442.802765 944.219727,441.115295 
	C944.711792,440.998871 945.203857,440.882477 945.695923,440.766052 
	C946.451599,442.197693 947.395325,443.562378 947.932617,445.071716 
	C951.562500,455.268921 955.118896,465.492340 958.674072,475.716003 
	C961.366028,483.457428 962.317200,483.982361 970.306396,482.824860 
	C974.239136,482.255066 975.956604,480.866516 974.206055,476.608978 
	C970.090698,466.599854 966.523865,456.356018 962.149353,446.466278 
	C959.881226,441.338745 959.769165,437.484467 965.349243,433.860260 
M821.975586,408.499359 
	C821.956055,400.840240 821.830811,393.179352 821.961121,385.522797 
	C822.027405,381.633087 820.117859,380.584381 816.685852,380.954926 
	C813.450439,381.304199 809.233398,379.775818 809.183289,385.540924 
	C809.043030,401.694366 808.703796,417.846283 808.608704,433.999786 
	C808.552795,443.491760 808.910400,452.985718 808.894714,462.478485 
	C808.884888,468.438049 806.480896,471.341553 801.860352,471.610016 
	C796.912476,471.897491 794.515442,469.293762 794.014709,462.853485 
	C793.756714,459.534912 793.612183,456.198456 793.614441,452.870209 
	C793.629700,430.728607 793.596375,408.585938 793.826721,386.446198 
	C793.879822,381.338898 791.262512,380.709137 787.222961,380.939545 
	C783.776001,381.136108 780.028748,380.157959 780.066040,385.815857 
	C780.234619,411.465546 780.162537,437.116760 780.322876,462.766541 
	C780.357971,468.383026 781.899963,473.641907 786.113281,477.753418 
	C792.592285,484.075867 802.071472,485.776093 810.672119,482.161194 
	C818.281494,478.962952 822.488159,471.944061 822.414612,462.458557 
	C822.277710,444.805389 822.112488,427.152435 821.975586,408.499359 
M580.328064,422.506805 
	C580.302490,410.359009 580.194824,398.210541 580.299744,386.063873 
	C580.332703,382.245911 579.082336,380.543457 575.050537,380.932251 
	C571.485046,381.276093 567.533752,380.115479 567.532166,386.067383 
	C567.527161,404.381958 567.196472,422.696198 567.061584,441.011078 
	C567.005188,448.671936 567.218689,456.335266 567.125488,463.995209 
	C567.071655,468.419281 564.820496,471.258667 560.213623,471.633759 
	C555.921204,471.983185 553.310547,469.713745 552.684204,464.835022 
	C552.197876,461.047668 551.976074,457.201691 551.970886,453.381317 
	C551.940918,431.238373 552.029846,409.095306 552.032166,386.952301 
	C552.032837,381.063843 551.706970,381.166870 544.050659,380.878021 
	C538.964600,380.686157 538.407410,383.162476 538.464233,387.291534 
	C538.706970,404.942749 538.745361,422.596985 538.816467,440.250275 
	C538.849365,448.410156 538.388184,456.593597 538.861633,464.724976 
	C539.545105,476.463379 549.043274,484.532135 560.748108,484.000519 
	C572.842651,483.451202 580.822144,475.108887 580.744568,462.969025 
	C580.660522,449.814819 580.484741,436.661133 580.328064,422.506805 
M459.576233,471.148651 
	C460.014221,473.770264 460.036499,476.552612 460.975220,478.980652 
	C463.044098,484.332153 467.825348,481.560608 471.438477,481.625244 
	C472.103973,481.637146 473.635162,478.004852 473.412292,476.224091 
	C470.040619,449.282898 466.757141,422.323456 462.782867,395.467438 
	C460.286896,378.600830 463.553925,381.397278 446.569336,380.874023 
	C441.681671,380.723389 440.257141,382.770172 439.653290,387.102478 
	C437.267242,404.220947 434.555420,421.293762 432.123596,438.406158 
	C430.352844,450.866760 428.909241,463.373840 427.138306,475.834412 
	C426.756775,478.518768 425.296753,481.193024 429.496948,481.949310 
	C436.088654,483.136169 438.839386,481.923035 439.506348,477.451263 
	C440.341705,471.850159 440.986389,466.214600 442.042297,460.656403 
	C442.333893,459.121216 443.694489,456.687164 444.738312,456.593079 
	C448.657104,456.239868 452.895630,455.958679 456.488708,457.187439 
	C457.914886,457.675171 458.028107,462.161407 458.627289,464.852081 
	C459.024872,466.637512 459.223969,468.467102 459.576233,471.148651 
M674.069275,475.036041 
	C670.527954,448.472626 667.075195,421.897003 663.413513,395.350189 
	C661.068970,378.352509 663.627502,381.380646 646.642395,380.914398 
	C642.652832,380.804901 641.080200,382.267944 640.531311,386.162018 
	C638.142517,403.109650 635.416687,420.009583 633.001465,436.953674 
	C631.157043,449.893097 629.697632,462.887665 627.824707,475.822632 
	C627.429443,478.552032 625.991272,481.540833 630.096252,481.880188 
	C637.652405,482.504822 640.081177,482.218018 640.248230,477.495758 
	C640.382996,473.687866 640.998962,469.866180 641.735168,466.116119 
	C643.967529,454.745239 641.102661,456.461273 653.662781,456.196777 
	C657.453125,456.116913 658.512756,457.818726 658.864929,461.157288 
	C659.457764,466.777161 660.181030,472.400360 661.235962,477.948669 
	C662.001099,481.972656 665.176331,482.999054 671.464417,482.021790 
	C675.719238,481.360504 674.370361,478.403961 674.069275,475.036041 
M220.755188,441.654999 
	C218.237244,425.866058 215.701553,410.079926 213.206314,394.287384 
	C210.691498,378.370972 213.542877,381.460083 197.607697,380.896973 
	C192.858002,380.729126 191.248108,382.513184 190.650589,387.034882 
	C187.553146,410.474426 184.188843,433.878754 180.896942,457.292480 
	C179.992599,463.724579 179.003540,470.144745 178.081787,476.574432 
	C177.733276,479.005463 177.634003,481.251068 180.886017,481.944244 
	C188.441666,483.554718 190.670868,482.113007 191.922501,474.544098 
	C192.221420,472.736481 192.521805,470.927765 192.756821,469.111176 
	C194.612411,454.768646 194.607758,454.766266 208.891846,456.163879 
	C209.208664,456.194885 209.508514,456.399445 210.347015,456.736298 
	C211.034714,463.053223 211.618317,469.659058 212.509216,476.223206 
	C213.291885,481.990112 215.433640,483.049500 222.744385,481.980072 
	C227.891571,481.227142 226.231125,477.441040 225.833374,474.618622 
	C224.322815,463.900177 222.546906,453.219086 220.755188,441.654999 
M1004.862244,448.809845 
	C1006.367004,453.990356 1008.620422,459.095825 1009.149597,464.374146 
	C1009.607666,468.943604 1005.555054,471.274628 1000.926880,470.383118 
	C995.347168,469.308380 994.564636,465.193298 994.676575,460.559204 
	C994.773621,456.543701 993.888733,453.876373 988.915894,453.896118 
	C980.263611,453.930481 979.615112,454.288727 980.767151,462.901917 
	C981.202026,466.153351 982.011902,469.496613 983.391174,472.452576 
	C987.151184,480.510651 996.461426,484.345459 1007.353149,482.755371 
	C1015.098145,481.624695 1020.197510,475.846741 1021.918701,467.094879 
	C1023.394836,459.588928 1021.678955,452.713287 1018.038696,446.431763 
	C1012.367737,436.646423 1005.938416,427.302277 1000.197510,417.554993 
	C997.525696,413.018616 995.212158,408.130188 993.663452,403.115051 
	C992.258118,398.564392 995.624451,393.655640 999.495911,393.082977 
	C1005.017151,392.266266 1008.552063,394.791565 1009.036499,399.898682 
	C1009.733276,407.244812 1009.728210,407.168793 1017.192749,406.676025 
	C1019.534119,406.521454 1021.753601,407.129456 1022.206909,403.586395 
	C1023.432373,394.009155 1018.430908,384.810089 1010.018433,381.764282 
	C999.842590,378.080109 989.003601,381.216003 983.919556,389.609772 
	C980.267334,395.639526 979.600708,402.374573 981.984131,408.870972 
	C984.202148,414.916687 987.136902,420.777740 990.399902,426.342590 
	C994.775818,433.805389 999.771118,440.904999 1004.862244,448.809845 
M682.815857,464.653290 
	C683.973206,476.531403 692.246277,483.483643 704.661560,483.011292 
	C715.949829,482.581879 724.543640,473.908264 724.677063,462.809937 
	C724.786743,453.683258 724.510620,453.527618 715.135742,453.932892 
	C712.165771,454.061279 710.819397,455.132172 710.962341,458.090454 
	C711.026489,459.419159 711.009216,460.754059 710.975525,462.084778 
	C710.859070,466.685364 708.353760,469.683868 704.422852,469.963074 
	C699.235168,470.331482 696.597046,468.358337 696.087891,462.998322 
	C695.686462,458.772552 695.884155,454.484741 695.904358,450.224915 
	C695.980164,434.249573 695.988159,418.272705 696.245728,402.300018 
	C696.339478,396.487000 699.186584,393.356262 703.509827,393.337982 
	C708.203247,393.318085 711.231445,396.516510 711.082397,402.434540 
	C710.961487,407.237061 712.930969,408.670868 717.309937,408.096497 
	C718.784424,407.903076 720.415466,408.378326 721.766052,407.925201 
	C722.938477,407.531830 724.436218,406.425201 724.725098,405.348175 
	C726.956970,397.025146 720.850098,385.235229 712.580322,382.434631 
	C699.514282,378.009705 683.363098,382.815979 682.522644,401.526886 
	C682.283691,406.845459 682.254944,412.178253 682.289673,417.503448 
	C682.390259,432.928009 682.572083,448.352051 682.815857,464.653290 
M247.995819,399.058441 
	C250.631195,393.424896 255.307526,391.380890 259.319336,394.844849 
	C261.262177,396.522400 262.565308,399.941956 262.606415,402.596802 
	C262.675903,407.090118 264.272919,408.664764 268.540955,408.080505 
	C269.685577,407.923798 270.878479,407.971069 272.035034,408.078094 
	C275.378967,408.387451 276.326843,406.663055 276.417297,403.604401 
	C276.792023,390.936829 268.897675,381.296539 257.448761,381.034088 
	C242.270309,380.686127 234.574173,387.610992 234.111328,401.898590 
	C233.486771,421.177643 233.633728,440.493164 233.973801,459.783813 
	C234.058609,464.594177 235.261810,469.845398 237.513046,474.059479 
	C241.967621,482.397919 254.565842,485.405609 264.077057,481.314178 
	C272.865814,477.533569 278.392059,466.109131 275.828735,456.661255 
	C275.552094,455.641541 274.304352,454.417053 273.278625,454.143250 
	C265.432007,452.048584 262.640839,454.123596 262.416229,461.946716 
	C262.276550,466.812164 260.011719,469.677917 256.075470,469.969757 
	C250.813766,470.359863 248.168152,468.482208 247.577972,463.149353 
	C247.126862,459.073212 247.332336,454.916138 247.365311,450.796021 
	C247.501221,433.819183 247.682785,416.842682 247.995819,399.058441 
M886.242798,412.476562 
	C886.551453,419.783417 887.066040,427.088623 887.125305,434.397522 
	C887.242737,448.872131 887.170593,463.349335 887.038879,477.824249 
	C887.001892,481.893616 889.115967,483.078705 892.669250,482.935913 
	C900.298950,482.629303 907.926575,482.250519 915.558899,482.040924 
	C922.377869,481.853638 922.386597,481.688721 922.565491,474.988556 
	C922.671814,471.008026 921.267090,469.487000 917.382507,469.760345 
	C914.897278,469.935272 912.388000,469.767822 909.889526,469.756287 
	C898.979431,469.705963 901.071716,470.706024 900.471313,460.791656 
	C899.985046,452.761383 900.372620,444.678192 900.372620,436.228760 
	C904.617676,436.228760 908.113525,435.985413 911.561218,436.289093 
	C916.080627,436.687195 917.328430,434.688995 917.274841,430.472778 
	C917.221130,426.243896 916.150391,423.717468 911.359314,423.982666 
	C907.922058,424.172913 904.465759,424.019714 900.503296,424.019714 
	C900.503296,414.026245 900.503296,403.828888 900.503296,393.016418 
	C905.990784,393.016418 911.291382,392.744354 916.552246,393.085175 
	C923.144958,393.512360 920.749023,388.689026 921.256226,385.595734 
	C921.852722,381.957703 919.783508,380.951538 916.549622,380.976105 
	C908.055054,381.040588 899.558716,381.056122 891.064758,380.952118 
	C887.477234,380.908234 886.008057,382.287689 886.101929,386.002197 
	C886.316528,394.491730 886.215576,402.989258 886.242798,412.476562 
M307.643127,469.766876 
	C300.750671,469.726471 300.687744,469.729431 300.354095,462.641205 
	C300.142792,458.152527 300.164429,453.653137 300.061798,449.159058 
	C299.775421,436.615906 299.769379,436.453094 312.147308,436.304718 
	C316.360962,436.254211 317.169006,434.369324 317.076935,430.780701 
	C316.984833,427.189026 316.952515,423.925903 312.035248,424.022675 
	C308.267914,424.096863 304.497955,424.037445 300.385254,424.037445 
	C300.385254,413.990021 300.385254,403.649750 300.385254,393.009613 
	C306.063568,393.009613 311.240723,392.705017 316.366364,393.088562 
	C322.447205,393.543579 320.714050,389.260193 321.115601,386.134308 
	C321.580780,382.512756 320.119019,380.912720 316.391052,380.965240 
	C308.396790,381.077972 300.387787,381.247772 292.407898,380.885529 
	C287.278931,380.652679 285.716278,382.570282 285.900848,387.522614 
	C286.464447,402.645660 286.840363,417.779633 287.006012,432.912445 
	C287.168030,447.714417 287.070190,462.521301 286.892151,477.323669 
	C286.842041,481.490570 288.632538,483.096893 292.561707,482.936646 
	C300.524872,482.611877 308.488617,482.113159 316.453369,482.088379 
	C320.964966,482.074341 322.490936,480.553375 322.461029,475.908173 
	C322.430023,471.084625 320.883636,469.206512 316.097076,469.730438 
	C313.628357,470.000671 311.104858,469.770508 307.643127,469.766876 
M606.148376,459.068176 
	C606.210327,452.414307 606.120300,445.752045 606.485229,439.114838 
	C606.545410,438.020874 608.505493,436.305878 609.752380,436.143524 
	C613.025818,435.717194 616.401306,436.158936 619.715637,435.941559 
	C624.111816,435.653168 623.224792,432.143372 623.026367,429.507324 
	C622.844971,427.097321 624.323792,423.314758 619.331543,423.653748 
	C616.045715,423.876892 612.707947,423.987183 609.449707,423.632111 
	C608.206787,423.496613 606.138123,421.941956 606.118469,420.999207 
	C605.959045,413.349365 606.108765,405.688385 606.354675,398.036926 
	C606.462708,394.676971 608.304443,392.986420 611.892395,393.159454 
	C615.715210,393.343811 619.559143,393.067780 623.384827,393.220184 
	C627.148804,393.370087 627.882568,391.339020 627.624268,388.174316 
	C627.365784,385.006653 628.624451,380.998077 623.261108,380.991364 
	C614.264343,380.980072 605.267456,381.027863 596.270874,380.985718 
	C593.504700,380.972748 592.352234,382.277069 592.389282,384.955231 
	C592.451477,389.443359 592.434998,393.932587 592.464417,398.421234 
	C592.628418,423.476440 592.844849,448.531494 592.934814,473.586975 
	C592.963745,481.636414 595.325012,483.832397 603.073669,481.737000 
	C604.546997,481.338593 606.408142,478.933350 606.474243,477.384949 
	C606.721924,471.590424 606.298645,465.767242 606.148376,459.068176 
M744.428101,406.430115 
	C744.648865,412.064056 745.011292,417.696655 745.064331,423.332184 
	C745.236450,441.611237 745.319580,459.891296 745.371216,478.171112 
	C745.378967,480.907654 746.464111,482.188477 749.233459,482.046356 
	C750.894348,481.961212 752.562439,481.978577 754.226624,482.000610 
	C757.520203,482.044189 758.980774,480.609802 758.957825,477.156067 
	C758.792114,452.216370 758.927856,427.273285 758.570435,402.336945 
	C758.422729,392.035065 758.183472,393.011322 767.532593,393.310669 
	C772.594360,393.472778 773.231750,390.939819 773.274048,386.874756 
	C773.315979,382.841919 772.385437,380.746948 767.707581,380.882477 
	C757.560913,381.176392 747.399841,380.961517 737.244629,380.975128 
	C729.368713,380.985657 727.513550,383.419678 729.953857,391.117188 
	C730.335266,392.320282 732.413696,393.821075 733.663696,393.782074 
	C744.504150,393.444153 744.501038,393.348755 744.427429,403.959747 
	C744.423950,404.459167 744.426514,404.958618 744.428101,406.430115 
z"/>
<path fill="#342B24" opacity="1.000000" stroke="none" 
	d="
M233.999863,332.598389 
	C218.339661,332.604553 203.176758,332.453369 188.020935,332.714294 
	C183.532883,332.791565 182.139496,331.290192 182.475235,326.986694 
	C182.796036,322.874725 182.544434,318.718079 182.544434,314.191772 
	C276.230774,314.191772 369.419678,314.191772 463.380493,314.191772 
	C463.380493,319.562012 463.545349,324.827820 463.224213,330.063812 
	C463.168304,330.975555 461.106873,332.406647 459.895935,332.489471 
	C455.584930,332.784302 451.241241,332.598236 446.909912,332.598206 
	C376.106567,332.597961 305.303223,332.598358 233.999863,332.598389 
z"/>
<path fill="#342B24" opacity="1.000000" stroke="none" 
	d="
M763.999878,330.565613 
	C756.834106,330.563599 750.163330,330.404114 743.504761,330.621521 
	C739.750549,330.744110 737.848022,329.812531 738.391968,325.618530 
	C738.732117,322.996246 738.757568,320.252777 738.395386,317.636963 
	C737.698730,312.605377 739.870850,311.634430 744.539001,311.641449 
	C832.359436,311.773773 920.180054,311.738647 1008.000671,311.738495 
	C1011.479065,311.738495 1014.957520,311.738495 1019.231079,311.738495 
	C1019.231079,317.535034 1019.360168,322.961365 1019.085571,328.367188 
	C1019.046387,329.139191 1017.088867,330.356750 1015.956848,330.432129 
	C1011.974365,330.697266 1007.964661,330.564453 1003.965332,330.564545 
	C924.143494,330.566498 844.321716,330.565948 763.999878,330.565613 
z"/>
<path fill="#362B22" opacity="1.000000" stroke="none" 
	d="
M396.610168,455.790497 
	C395.058746,463.519501 393.782410,470.874695 391.971313,478.095764 
	C391.584625,479.637634 389.081726,481.879852 387.861694,481.700867 
	C385.898376,481.412720 382.965637,479.666077 382.581818,478.032837 
	C380.605408,469.623108 379.406464,461.034546 377.753998,452.543823 
	C375.728973,442.138733 373.539490,431.765442 371.378754,421.387177 
	C371.062347,419.867432 370.511841,418.396423 368.934509,417.102020 
	C368.934509,419.015961 368.934998,420.929901 368.934418,422.843842 
	C368.929047,440.661499 368.768921,458.481354 369.018280,476.295441 
	C369.087250,481.224243 367.014252,482.235016 362.735596,482.086609 
	C358.687073,481.946136 356.230896,481.224487 356.232208,476.233002 
	C356.239990,446.436707 356.068115,416.639374 355.725494,386.845001 
	C355.671539,382.156647 357.279968,380.819824 361.788147,380.887024 
	C373.047729,381.054932 373.031250,380.881653 375.213318,391.725586 
	C378.596375,408.537750 381.999329,425.345886 385.420135,442.150421 
	C385.844818,444.236542 386.429779,446.290100 388.075562,448.511169 
	C388.435272,447.096893 388.908234,445.700714 389.137543,444.265594 
	C392.079529,425.852692 394.971863,407.431854 397.909637,389.018280 
	C399.190033,380.992920 399.224091,380.996033 407.093903,380.983826 
	C408.925781,380.980988 411.019440,380.445343 412.520905,381.154114 
	C414.252319,381.971436 415.618408,383.779144 416.819611,385.396973 
	C417.303528,386.048767 416.932648,387.337860 416.944794,388.336945 
	C417.296509,417.256042 417.641693,446.175201 418.003296,475.094177 
	C418.080414,481.261322 412.798187,484.698761 407.467285,481.460052 
	C406.032532,480.588348 405.361572,477.514221 405.326447,475.434448 
	C405.059845,459.657959 405.071960,443.876984 404.914551,428.098267 
	C404.880371,424.670105 404.512817,421.245239 403.114929,417.750458 
	C400.974701,430.289886 398.834473,442.829346 396.610168,455.790497 
z"/>
<path fill="#342B22" opacity="1.000000" stroke="none" 
	d="
M502.060822,437.126770 
	C499.684204,428.380981 497.416412,420.030548 495.115326,411.689301 
	C495.053192,411.464111 494.631378,411.338135 493.713867,410.716034 
	C493.713867,415.869537 493.607330,420.588562 493.733154,425.301392 
	C494.177338,441.939697 494.601715,458.579865 495.263275,475.210175 
	C495.432587,479.466766 494.455414,481.938660 489.723938,482.058624 
	C483.932678,482.205444 482.625732,481.415497 482.472717,475.914337 
	C481.847809,453.449249 481.350220,430.980560 480.833618,408.512543 
	C480.661499,401.026367 480.655701,393.535553 480.412018,386.052124 
	C480.286194,382.187164 481.812653,380.784851 485.729980,380.931458 
	C499.183685,381.434998 497.249969,378.437164 500.584381,392.358948 
	C504.306244,407.898499 508.438599,423.339844 512.415771,438.817902 
	C512.770996,440.200134 513.299316,441.537872 514.637817,442.855896 
	C514.711670,441.341553 514.863831,439.826355 514.847290,438.313019 
	C514.660400,421.172516 514.533630,404.030487 514.180542,386.893188 
	C514.093323,382.657806 514.994629,380.442657 519.877747,380.351196 
	C524.784546,380.259247 526.921692,381.916718 526.890076,386.845398 
	C526.812439,398.954224 526.809448,411.065277 526.953186,423.173340 
	C527.158508,440.468689 527.566467,457.761658 527.769897,475.057007 
	C527.801636,477.752533 529.242859,481.357483 524.464539,481.990387 
	C515.833191,483.133636 513.550659,482.163483 512.168396,476.697662 
	C508.864319,463.631927 505.503204,450.580536 502.060822,437.126770 
z"/>
<path fill="#342B22" opacity="1.000000" stroke="none" 
	d="
M869.465820,433.468994 
	C863.251770,437.237396 863.543518,441.699463 866.186646,447.490601 
	C870.395813,456.713104 873.794800,466.307037 877.474670,475.767914 
	C878.119019,477.424713 878.460510,479.199310 879.227722,481.940857 
	C874.883545,482.324951 871.080688,483.265015 867.505981,482.716797 
	C865.776550,482.451599 863.856323,479.623230 863.085144,477.558472 
	C859.184570,467.116058 855.653076,456.536224 851.940002,446.023010 
	C851.314087,444.250549 850.433167,442.568207 849.670044,440.844208 
	C849.170349,440.891815 848.670654,440.939423 848.170959,440.987030 
	C847.918030,442.414520 847.429993,443.845245 847.449646,445.268982 
	C847.596558,455.919373 847.729797,466.572571 848.120117,477.215607 
	C848.260803,481.052856 847.526367,483.144470 843.047974,483.101746 
	C834.751709,483.022614 834.496521,483.117645 834.469116,477.826080 
	C834.313110,447.720306 834.182373,417.614349 834.089355,387.508301 
	C834.070557,381.418488 834.563171,381.003265 840.639954,380.982513 
	C845.968201,380.964294 851.299072,380.885864 856.624329,381.015015 
	C866.403198,381.252167 873.540833,386.600403 874.654114,396.299072 
	C875.668274,405.134094 875.357666,414.212769 874.656860,423.107269 
	C874.382568,426.588165 871.453613,429.859833 869.465820,433.468994 
M860.510254,424.377563 
	C861.261780,422.116547 862.477234,419.892303 862.659973,417.586243 
	C862.960388,413.794434 862.621948,409.948639 862.499146,406.127319 
	C862.105835,393.890869 857.464844,392.541779 847.150879,394.836731 
	C847.150879,403.060120 847.109375,411.341614 847.163086,419.622498 
	C847.212952,427.318268 849.041748,428.702972 856.446167,426.654205 
	C857.692444,426.309357 858.804993,425.481415 860.510254,424.377563 
z"/>
<path fill="#342B22" opacity="1.000000" stroke="none" 
	d="
M965.088867,434.109955 
	C959.769165,437.484467 959.881226,441.338745 962.149353,446.466278 
	C966.523865,456.356018 970.090698,466.599854 974.206055,476.608978 
	C975.956604,480.866516 974.239136,482.255066 970.306396,482.824860 
	C962.317200,483.982361 961.366028,483.457428 958.674072,475.716003 
	C955.118896,465.492340 951.562500,455.268921 947.932617,445.071716 
	C947.395325,443.562378 946.451599,442.197693 945.695923,440.766052 
	C945.203857,440.882477 944.711792,440.998871 944.219727,441.115295 
	C944.093384,442.802765 943.833679,444.492554 943.862549,446.177399 
	C944.044800,456.833221 944.235718,467.489594 944.549194,478.142090 
	C944.646362,481.443085 943.563354,483.261353 940.014954,483.054810 
	C938.520020,482.967804 937.003296,482.888428 935.520325,483.039642 
	C932.041870,483.394348 930.798523,481.897217 930.791931,478.450897 
	C930.733154,447.836243 930.593079,417.221680 930.402466,386.607513 
	C930.378235,382.719391 931.606567,380.732544 935.893738,380.920959 
	C941.713867,381.176727 947.557556,380.853821 953.383545,381.029785 
	C962.692932,381.310913 969.808350,386.612213 970.846497,395.751129 
	C971.869019,404.752777 971.697388,414.002045 970.910339,423.043488 
	C970.584961,426.782104 967.292358,430.262451 965.088867,434.109955 
M943.536560,420.938263 
	C944.089783,422.907257 944.019775,425.849518 945.306335,426.673370 
	C950.328064,429.889069 958.803772,425.005890 958.990112,419.020721 
	C959.124268,414.711426 958.887085,410.390930 958.832153,406.075226 
	C958.693848,395.211182 954.507324,392.080078 943.485046,394.805878 
	C943.485046,403.176422 943.485046,411.599854 943.536560,420.938263 
z"/>
<path fill="#362C21" opacity="1.000000" stroke="none" 
	d="
M821.967346,408.999390 
	C822.112488,427.152435 822.277710,444.805389 822.414612,462.458557 
	C822.488159,471.944061 818.281494,478.962952 810.672119,482.161194 
	C802.071472,485.776093 792.592285,484.075867 786.113281,477.753418 
	C781.899963,473.641907 780.357971,468.383026 780.322876,462.766541 
	C780.162537,437.116760 780.234619,411.465546 780.066040,385.815857 
	C780.028748,380.157959 783.776001,381.136108 787.222961,380.939545 
	C791.262512,380.709137 793.879822,381.338898 793.826721,386.446198 
	C793.596375,408.585938 793.629700,430.728607 793.614441,452.870209 
	C793.612183,456.198456 793.756714,459.534912 794.014709,462.853485 
	C794.515442,469.293762 796.912476,471.897491 801.860352,471.610016 
	C806.480896,471.341553 808.884888,468.438049 808.894714,462.478485 
	C808.910400,452.985718 808.552795,443.491760 808.608704,433.999786 
	C808.703796,417.846283 809.043030,401.694366 809.183289,385.540924 
	C809.233398,379.775818 813.450439,381.304199 816.685852,380.954926 
	C820.117859,380.584381 822.027405,381.633087 821.961121,385.522797 
	C821.830811,393.179352 821.956055,400.840240 821.967346,408.999390 
z"/>
<path fill="#342B22" opacity="1.000000" stroke="none" 
	d="
M580.338501,423.007019 
	C580.484741,436.661133 580.660522,449.814819 580.744568,462.969025 
	C580.822144,475.108887 572.842651,483.451202 560.748108,484.000519 
	C549.043274,484.532135 539.545105,476.463379 538.861633,464.724976 
	C538.388184,456.593597 538.849365,448.410156 538.816467,440.250275 
	C538.745361,422.596985 538.706970,404.942749 538.464233,387.291534 
	C538.407410,383.162476 538.964600,380.686157 544.050659,380.878021 
	C551.706970,381.166870 552.032837,381.063843 552.032166,386.952301 
	C552.029846,409.095306 551.940918,431.238373 551.970886,453.381317 
	C551.976074,457.201691 552.197876,461.047668 552.684204,464.835022 
	C553.310547,469.713745 555.921204,471.983185 560.213623,471.633759 
	C564.820496,471.258667 567.071655,468.419281 567.125488,463.995209 
	C567.218689,456.335266 567.005188,448.671936 567.061584,441.011078 
	C567.196472,422.696198 567.527161,404.381958 567.532166,386.067383 
	C567.533752,380.115479 571.485046,381.276093 575.050537,380.932251 
	C579.082336,380.543457 580.332703,382.245911 580.299744,386.063873 
	C580.194824,398.210541 580.302490,410.359009 580.338501,423.007019 
z"/>
<path fill="#342B22" opacity="1.000000" stroke="none" 
	d="
M459.544098,470.712769 
	C459.223969,468.467102 459.024872,466.637512 458.627289,464.852081 
	C458.028107,462.161407 457.914886,457.675171 456.488708,457.187439 
	C452.895630,455.958679 448.657104,456.239868 444.738312,456.593079 
	C443.694489,456.687164 442.333893,459.121216 442.042297,460.656403 
	C440.986389,466.214600 440.341705,471.850159 439.506348,477.451263 
	C438.839386,481.923035 436.088654,483.136169 429.496948,481.949310 
	C425.296753,481.193024 426.756775,478.518768 427.138306,475.834412 
	C428.909241,463.373840 430.352844,450.866760 432.123596,438.406158 
	C434.555420,421.293762 437.267242,404.220947 439.653290,387.102478 
	C440.257141,382.770172 441.681671,380.723389 446.569336,380.874023 
	C463.553925,381.397278 460.286896,378.600830 462.782867,395.467438 
	C466.757141,422.323456 470.040619,449.282898 473.412292,476.224091 
	C473.635162,478.004852 472.103973,481.637146 471.438477,481.625244 
	C467.825348,481.560608 463.044098,484.332153 460.975220,478.980652 
	C460.036499,476.552612 460.014221,473.770264 459.544098,470.712769 
M447.216522,417.018738 
	C446.410034,425.845795 445.603546,434.672882 444.779785,443.688904 
	C448.906982,443.688904 452.454285,443.688904 456.395935,443.688904 
	C454.692596,429.109222 453.033539,414.908691 451.374481,400.708160 
	C451.063171,400.722137 450.751831,400.736084 450.440521,400.750061 
	C449.448364,405.886810 448.456207,411.023590 447.216522,417.018738 
z"/>
<path fill="#342B22" opacity="1.000000" stroke="none" 
	d="
M674.122498,475.455444 
	C674.370361,478.403961 675.719238,481.360504 671.464417,482.021790 
	C665.176331,482.999054 662.001099,481.972656 661.235962,477.948669 
	C660.181030,472.400360 659.457764,466.777161 658.864929,461.157288 
	C658.512756,457.818726 657.453125,456.116913 653.662781,456.196777 
	C641.102661,456.461273 643.967529,454.745239 641.735168,466.116119 
	C640.998962,469.866180 640.382996,473.687866 640.248230,477.495758 
	C640.081177,482.218018 637.652405,482.504822 630.096252,481.880188 
	C625.991272,481.540833 627.429443,478.552032 627.824707,475.822632 
	C629.697632,462.887665 631.157043,449.893097 633.001465,436.953674 
	C635.416687,420.009583 638.142517,403.109650 640.531311,386.162018 
	C641.080200,382.267944 642.652832,380.804901 646.642395,380.914398 
	C663.627502,381.380646 661.068970,378.352509 663.413513,395.350189 
	C667.075195,421.897003 670.527954,448.472626 674.122498,475.455444 
M652.404663,403.742676 
	C652.157471,402.748779 651.910217,401.754852 651.662964,400.760925 
	C651.299011,400.759094 650.935059,400.757263 650.571106,400.755432 
	C648.733643,415.026947 646.896118,429.298431 645.062561,443.539154 
	C649.723694,443.539154 653.251587,443.539154 657.034546,443.539154 
	C655.502075,430.181702 654.028015,417.332794 652.404663,403.742676 
z"/>
<path fill="#342B22" opacity="1.000000" stroke="none" 
	d="
M220.812698,442.089539 
	C222.546906,453.219086 224.322815,463.900177 225.833374,474.618622 
	C226.231125,477.441040 227.891571,481.227142 222.744385,481.980072 
	C215.433640,483.049500 213.291885,481.990112 212.509216,476.223206 
	C211.618317,469.659058 211.034714,463.053223 210.347015,456.736298 
	C209.508514,456.399445 209.208664,456.194885 208.891846,456.163879 
	C194.607758,454.766266 194.612411,454.768646 192.756821,469.111176 
	C192.521805,470.927765 192.221420,472.736481 191.922501,474.544098 
	C190.670868,482.113007 188.441666,483.554718 180.886017,481.944244 
	C177.634003,481.251068 177.733276,479.005463 178.081787,476.574432 
	C179.003540,470.144745 179.992599,463.724579 180.896942,457.292480 
	C184.188843,433.878754 187.553146,410.474426 190.650589,387.034882 
	C191.248108,382.513184 192.858002,380.729126 197.607697,380.896973 
	C213.542877,381.460083 210.691498,378.370972 213.206314,394.287384 
	C215.701553,410.079926 218.237244,425.866058 220.812698,442.089539 
M204.933838,419.510834 
	C204.933838,419.510834 204.811829,419.273529 204.867264,418.387238 
	C204.664261,417.531128 204.461273,416.675018 204.349686,415.054565 
	C203.641388,409.894135 202.933090,404.733704 202.224792,399.573303 
	C201.776443,399.591278 201.328094,399.609253 200.879745,399.627258 
	C200.484589,403.664276 200.089432,407.701294 199.403229,412.571503 
	C199.386124,413.157166 199.369019,413.742798 199.134354,414.990326 
	C199.107132,415.915955 199.079926,416.841583 198.838379,418.384094 
	C198.836273,418.816315 198.834167,419.248566 198.503769,420.379486 
	C198.272934,422.835602 198.042114,425.291748 197.476196,428.569977 
	C197.417114,429.451050 197.358032,430.332092 197.120010,431.720184 
	C197.135056,432.074799 197.150101,432.429413 196.894958,433.591400 
	C195.169662,444.223175 195.167160,444.092010 203.955856,443.923981 
	C207.311340,443.859802 208.405426,442.679535 207.869095,439.434235 
	C206.788025,432.892548 205.859299,426.325745 204.933838,419.510834 
z"/>
<path fill="#352B22" opacity="1.000000" stroke="none" 
	d="
M1004.681396,448.485199 
	C999.771118,440.904999 994.775818,433.805389 990.399902,426.342590 
	C987.136902,420.777740 984.202148,414.916687 981.984131,408.870972 
	C979.600708,402.374573 980.267334,395.639526 983.919556,389.609772 
	C989.003601,381.216003 999.842590,378.080109 1010.018433,381.764282 
	C1018.430908,384.810089 1023.432373,394.009155 1022.206909,403.586395 
	C1021.753601,407.129456 1019.534119,406.521454 1017.192749,406.676025 
	C1009.728210,407.168793 1009.733276,407.244812 1009.036499,399.898682 
	C1008.552063,394.791565 1005.017151,392.266266 999.495911,393.082977 
	C995.624451,393.655640 992.258118,398.564392 993.663452,403.115051 
	C995.212158,408.130188 997.525696,413.018616 1000.197510,417.554993 
	C1005.938416,427.302277 1012.367737,436.646423 1018.038696,446.431763 
	C1021.678955,452.713287 1023.394836,459.588928 1021.918701,467.094879 
	C1020.197510,475.846741 1015.098145,481.624695 1007.353149,482.755371 
	C996.461426,484.345459 987.151184,480.510651 983.391174,472.452576 
	C982.011902,469.496613 981.202026,466.153351 980.767151,462.901917 
	C979.615112,454.288727 980.263611,453.930481 988.915894,453.896118 
	C993.888733,453.876373 994.773621,456.543701 994.676575,460.559204 
	C994.564636,465.193298 995.347168,469.308380 1000.926880,470.383118 
	C1005.555054,471.274628 1009.607666,468.943604 1009.149597,464.374146 
	C1008.620422,459.095825 1006.367004,453.990356 1004.681396,448.485199 
z"/>
<path fill="#362B21" opacity="1.000000" stroke="none" 
	d="
M682.768921,464.214783 
	C682.572083,448.352051 682.390259,432.928009 682.289673,417.503448 
	C682.254944,412.178253 682.283691,406.845459 682.522644,401.526886 
	C683.363098,382.815979 699.514282,378.009705 712.580322,382.434631 
	C720.850098,385.235229 726.956970,397.025146 724.725098,405.348175 
	C724.436218,406.425201 722.938477,407.531830 721.766052,407.925201 
	C720.415466,408.378326 718.784424,407.903076 717.309937,408.096497 
	C712.930969,408.670868 710.961487,407.237061 711.082397,402.434540 
	C711.231445,396.516510 708.203247,393.318085 703.509827,393.337982 
	C699.186584,393.356262 696.339478,396.487000 696.245728,402.300018 
	C695.988159,418.272705 695.980164,434.249573 695.904358,450.224915 
	C695.884155,454.484741 695.686462,458.772552 696.087891,462.998322 
	C696.597046,468.358337 699.235168,470.331482 704.422852,469.963074 
	C708.353760,469.683868 710.859070,466.685364 710.975525,462.084778 
	C711.009216,460.754059 711.026489,459.419159 710.962341,458.090454 
	C710.819397,455.132172 712.165771,454.061279 715.135742,453.932892 
	C724.510620,453.527618 724.786743,453.683258 724.677063,462.809937 
	C724.543640,473.908264 715.949829,482.581879 704.661560,483.011292 
	C692.246277,483.483643 683.973206,476.531403 682.768921,464.214783 
z"/>
<path fill="#332A21" opacity="1.000000" stroke="none" 
	d="
M247.921677,399.462250 
	C247.682785,416.842682 247.501221,433.819183 247.365311,450.796021 
	C247.332336,454.916138 247.126862,459.073212 247.577972,463.149353 
	C248.168152,468.482208 250.813766,470.359863 256.075470,469.969757 
	C260.011719,469.677917 262.276550,466.812164 262.416229,461.946716 
	C262.640839,454.123596 265.432007,452.048584 273.278625,454.143250 
	C274.304352,454.417053 275.552094,455.641541 275.828735,456.661255 
	C278.392059,466.109131 272.865814,477.533569 264.077057,481.314178 
	C254.565842,485.405609 241.967621,482.397919 237.513046,474.059479 
	C235.261810,469.845398 234.058609,464.594177 233.973801,459.783813 
	C233.633728,440.493164 233.486771,421.177643 234.111328,401.898590 
	C234.574173,387.610992 242.270309,380.686127 257.448761,381.034088 
	C268.897675,381.296539 276.792023,390.936829 276.417297,403.604401 
	C276.326843,406.663055 275.378967,408.387451 272.035034,408.078094 
	C270.878479,407.971069 269.685577,407.923798 268.540955,408.080505 
	C264.272919,408.664764 262.675903,407.090118 262.606415,402.596802 
	C262.565308,399.941956 261.262177,396.522400 259.319336,394.844849 
	C255.307526,391.380890 250.631195,393.424896 247.921677,399.462250 
z"/>
<path fill="#332A21" opacity="1.000000" stroke="none" 
	d="
M886.242798,411.980042 
	C886.215576,402.989258 886.316528,394.491730 886.101929,386.002197 
	C886.008057,382.287689 887.477234,380.908234 891.064758,380.952118 
	C899.558716,381.056122 908.055054,381.040588 916.549622,380.976105 
	C919.783508,380.951538 921.852722,381.957703 921.256226,385.595734 
	C920.749023,388.689026 923.144958,393.512360 916.552246,393.085175 
	C911.291382,392.744354 905.990784,393.016418 900.503296,393.016418 
	C900.503296,403.828888 900.503296,414.026245 900.503296,424.019714 
	C904.465759,424.019714 907.922058,424.172913 911.359314,423.982666 
	C916.150391,423.717468 917.221130,426.243896 917.274841,430.472778 
	C917.328430,434.688995 916.080627,436.687195 911.561218,436.289093 
	C908.113525,435.985413 904.617676,436.228760 900.372620,436.228760 
	C900.372620,444.678192 899.985046,452.761383 900.471313,460.791656 
	C901.071716,470.706024 898.979431,469.705963 909.889526,469.756287 
	C912.388000,469.767822 914.897278,469.935272 917.382507,469.760345 
	C921.267090,469.487000 922.671814,471.008026 922.565491,474.988556 
	C922.386597,481.688721 922.377869,481.853638 915.558899,482.040924 
	C907.926575,482.250519 900.298950,482.629303 892.669250,482.935913 
	C889.115967,483.078705 887.001892,481.893616 887.038879,477.824249 
	C887.170593,463.349335 887.242737,448.872131 887.125305,434.397522 
	C887.066040,427.088623 886.551453,419.783417 886.242798,411.980042 
z"/>
<path fill="#332A21" opacity="1.000000" stroke="none" 
	d="
M308.124634,469.766663 
	C311.104858,469.770508 313.628357,470.000671 316.097076,469.730438 
	C320.883636,469.206512 322.430023,471.084625 322.461029,475.908173 
	C322.490936,480.553375 320.964966,482.074341 316.453369,482.088379 
	C308.488617,482.113159 300.524872,482.611877 292.561707,482.936646 
	C288.632538,483.096893 286.842041,481.490570 286.892151,477.323669 
	C287.070190,462.521301 287.168030,447.714417 287.006012,432.912445 
	C286.840363,417.779633 286.464447,402.645660 285.900848,387.522614 
	C285.716278,382.570282 287.278931,380.652679 292.407898,380.885529 
	C300.387787,381.247772 308.396790,381.077972 316.391052,380.965240 
	C320.119019,380.912720 321.580780,382.512756 321.115601,386.134308 
	C320.714050,389.260193 322.447205,393.543579 316.366364,393.088562 
	C311.240723,392.705017 306.063568,393.009613 300.385254,393.009613 
	C300.385254,403.649750 300.385254,413.990021 300.385254,424.037445 
	C304.497955,424.037445 308.267914,424.096863 312.035248,424.022675 
	C316.952515,423.925903 316.984833,427.189026 317.076935,430.780701 
	C317.169006,434.369324 316.360962,436.254211 312.147308,436.304718 
	C299.769379,436.453094 299.775421,436.615906 300.061798,449.159058 
	C300.164429,453.653137 300.142792,458.152527 300.354095,462.641205 
	C300.687744,469.729431 300.750671,469.726471 308.124634,469.766663 
z"/>
<path fill="#342B22" opacity="1.000000" stroke="none" 
	d="
M606.137695,459.511475 
	C606.298645,465.767242 606.721924,471.590424 606.474243,477.384949 
	C606.408142,478.933350 604.546997,481.338593 603.073669,481.737000 
	C595.325012,483.832397 592.963745,481.636414 592.934814,473.586975 
	C592.844849,448.531494 592.628418,423.476440 592.464417,398.421234 
	C592.434998,393.932587 592.451477,389.443359 592.389282,384.955231 
	C592.352234,382.277069 593.504700,380.972748 596.270874,380.985718 
	C605.267456,381.027863 614.264343,380.980072 623.261108,380.991364 
	C628.624451,380.998077 627.365784,385.006653 627.624268,388.174316 
	C627.882568,391.339020 627.148804,393.370087 623.384827,393.220184 
	C619.559143,393.067780 615.715210,393.343811 611.892395,393.159454 
	C608.304443,392.986420 606.462708,394.676971 606.354675,398.036926 
	C606.108765,405.688385 605.959045,413.349365 606.118469,420.999207 
	C606.138123,421.941956 608.206787,423.496613 609.449707,423.632111 
	C612.707947,423.987183 616.045715,423.876892 619.331543,423.653748 
	C624.323792,423.314758 622.844971,427.097321 623.026367,429.507324 
	C623.224792,432.143372 624.111816,435.653168 619.715637,435.941559 
	C616.401306,436.158936 613.025818,435.717194 609.752380,436.143524 
	C608.505493,436.305878 606.545410,438.020874 606.485229,439.114838 
	C606.120300,445.752045 606.210327,452.414307 606.137695,459.511475 
z"/>
<path fill="#362B22" opacity="1.000000" stroke="none" 
	d="
M744.427185,405.944092 
	C744.426514,404.958618 744.423950,404.459167 744.427429,403.959747 
	C744.501038,393.348755 744.504150,393.444153 733.663696,393.782074 
	C732.413696,393.821075 730.335266,392.320282 729.953857,391.117188 
	C727.513550,383.419678 729.368713,380.985657 737.244629,380.975128 
	C747.399841,380.961517 757.560913,381.176392 767.707581,380.882477 
	C772.385437,380.746948 773.315979,382.841919 773.274048,386.874756 
	C773.231750,390.939819 772.594360,393.472778 767.532593,393.310669 
	C758.183472,393.011322 758.422729,392.035065 758.570435,402.336945 
	C758.927856,427.273285 758.792114,452.216370 758.957825,477.156067 
	C758.980774,480.609802 757.520203,482.044189 754.226624,482.000610 
	C752.562439,481.978577 750.894348,481.961212 749.233459,482.046356 
	C746.464111,482.188477 745.378967,480.907654 745.371216,478.171112 
	C745.319580,459.891296 745.236450,441.611237 745.064331,423.332184 
	C745.011292,417.696655 744.648865,412.064056 744.427185,405.944092 
z"/>
<path fill="#422C13" opacity="1.000000" stroke="none" 
	d="
M703.534485,322.991089 
	C698.476685,329.847290 691.585388,332.507355 683.194214,332.495422 
	C628.122437,332.417114 573.049988,332.546326 517.979248,332.296509 
	C513.408264,332.275787 508.847717,329.954193 504.168060,328.319916 
	C504.053833,327.938202 504.228760,327.748688 504.596283,327.843109 
	C509.489410,328.948730 514.011780,330.822815 518.541077,330.839661 
	C572.922119,331.042084 627.304626,331.089203 681.685181,330.827637 
	C689.081238,330.792084 696.717529,329.485168 701.590820,322.448364 
	C702.080566,321.741211 703.273376,321.520996 704.080017,321.405090 
	C703.858276,322.153992 703.696411,322.572540 703.534485,322.991089 
z"/>
<path fill="#422C13" opacity="1.000000" stroke="none" 
	d="
M504.870453,123.860077 
	C509.247559,122.614632 513.619934,120.304649 518.002502,120.285301 
	C573.416748,120.040688 628.832886,120.032425 684.246948,120.300575 
	C688.794434,120.322578 693.330078,122.798149 697.974915,124.519531 
	C698.078613,124.905388 697.844971,125.155396 697.506775,125.026642 
	C692.521423,123.928291 687.878113,122.138077 683.226501,122.116341 
	C637.929077,121.904625 592.629883,121.869164 547.332275,122.059502 
	C533.270691,122.118591 519.075378,120.429962 505.109802,124.131920 
	C505.030090,124.041237 504.870453,123.860077 504.870453,123.860077 
z"/>
<path fill="#422C13" opacity="1.000000" stroke="none" 
	d="
M503.966217,328.032837 
	C496.969849,323.714417 494.841492,317.050720 494.849518,309.285095 
	C494.883789,276.130646 494.868683,242.976135 494.872040,209.821655 
	C494.874268,187.496536 494.892426,165.171387 494.871399,142.846298 
	C494.864014,135.005112 497.566803,128.559128 504.546509,123.958542 
	C504.870453,123.860077 505.030090,124.041237 504.940002,124.409859 
	C498.111938,132.092941 495.906708,140.828857 495.934326,150.614838 
	C496.073853,200.071548 496.160614,249.529831 495.870087,298.985229 
	C495.807495,309.632996 496.842712,319.489563 504.228760,327.748688 
	C504.228760,327.748688 504.053833,327.938202 503.966217,328.032837 
z"/>
<path fill="#4A2802" opacity="1.000000" stroke="none" 
	d="
M706.770935,316.390198 
	C706.770935,316.390198 706.841553,316.480316 706.594849,316.675293 
	C706.198669,317.588989 706.049133,318.307709 705.899658,319.026428 
	C705.899597,319.026428 706.003113,318.966370 705.745728,319.072327 
	C705.254822,319.447540 705.021362,319.716827 704.634521,319.658752 
	C704.999573,314.791412 705.959473,310.252319 705.969055,305.711212 
	C706.083740,250.818893 706.058105,195.926285 706.257080,141.024750 
	C706.445190,141.015778 706.821228,140.994919 706.894409,141.458862 
	C706.902039,200.078598 706.836487,258.234406 706.770935,316.390198 
z"/>
<path fill="#D59436" opacity="1.000000" stroke="none" 
	d="
M706.993530,315.991333 
	C706.836487,258.234406 706.902039,200.078598 706.927612,141.067230 
	C706.581360,138.139542 706.275024,136.067398 705.968750,133.995239 
	C706.642883,135.939423 707.902344,137.882507 707.905945,139.827957 
	C708.012512,196.790054 708.000488,253.752335 707.962891,310.714569 
	C707.961792,312.340698 707.475952,313.966492 706.993530,315.991333 
z"/>
<path fill="#422C13" opacity="1.000000" stroke="none" 
	d="
M705.888672,133.883301 
	C706.275024,136.067398 706.581360,138.139542 706.854431,140.603302 
	C706.821228,140.994919 706.445190,141.015778 706.103333,140.684509 
	C704.465820,136.607574 703.170166,132.861908 701.998901,129.006897 
	C702.123230,128.897552 702.372070,128.679031 702.372070,128.679031 
	C702.750183,129.033264 703.128235,129.387512 703.796387,130.149292 
	C704.363525,130.772263 704.640686,130.987656 704.917908,131.203033 
	C704.917908,131.203033 704.882263,131.006958 704.802124,131.380554 
	C705.096802,132.335709 705.471619,132.917252 705.846436,133.498779 
	C705.846497,133.498779 705.808594,133.771378 705.888672,133.883301 
z"/>
<path fill="#422C13" opacity="1.000000" stroke="none" 
	d="
M698.195312,124.780243 
	C699.579590,125.798485 700.847107,126.941864 702.243286,128.382141 
	C702.372070,128.679031 702.123230,128.897552 701.695251,128.889557 
	C700.126526,127.639496 698.985718,126.397446 697.844971,125.155396 
	C697.844971,125.155396 698.078613,124.905388 698.195312,124.780243 
z"/>
<path fill="#D59436" opacity="1.000000" stroke="none" 
	d="
M705.802917,133.151703 
	C705.471619,132.917252 705.096802,132.335709 704.704163,131.398880 
	C705.044067,131.630600 705.401733,132.217606 705.802917,133.151703 
z"/>
<path fill="#D59436" opacity="1.000000" stroke="none" 
	d="
M704.787903,319.986084 
	C705.021362,319.716827 705.254822,319.447540 705.708496,319.025482 
	C705.803772,319.476898 705.678894,320.081146 705.305176,320.868164 
	C705.056396,321.050995 704.867126,320.877960 704.844727,320.655212 
	C704.822266,320.432465 704.787903,319.986084 704.787903,319.986084 
z"/>
<path fill="#D59436" opacity="1.000000" stroke="none" 
	d="
M706.107422,318.735168 
	C706.049133,318.307709 706.198669,317.588989 706.640198,316.640350 
	C706.726501,317.088257 706.520874,317.766113 706.107422,318.735168 
z"/>
<path fill="#D59436" opacity="1.000000" stroke="none" 
	d="
M703.811401,322.837708 
	C703.696411,322.572540 703.858276,322.153992 704.260986,321.352417 
	C704.501770,320.969421 704.867126,320.877960 704.867126,320.877960 
	C704.867126,320.877960 705.056396,321.050995 705.152954,321.138245 
	C704.862488,321.711731 704.475403,322.198029 703.811401,322.837708 
z"/>
<path fill="#D59436" opacity="1.000000" stroke="none" 
	d="
M704.782349,130.984650 
	C704.640686,130.987656 704.363525,130.772263 704.018433,130.286804 
	C704.182617,130.266586 704.414673,130.516418 704.782349,130.984650 
z"/>
<path fill="#DE8F1C" opacity="1.000000" stroke="none" 
	d="
M860.244751,424.627106 
	C858.804993,425.481415 857.692444,426.309357 856.446167,426.654205 
	C849.041748,428.702972 847.212952,427.318268 847.163086,419.622498 
	C847.109375,411.341614 847.150879,403.060120 847.150879,394.836731 
	C857.464844,392.541779 862.105835,393.890869 862.499146,406.127319 
	C862.621948,409.948639 862.960388,413.794434 862.659973,417.586243 
	C862.477234,419.892303 861.261780,422.116547 860.244751,424.627106 
z"/>
<path fill="#DE8F1C" opacity="1.000000" stroke="none" 
	d="
M943.510803,420.480774 
	C943.485046,411.599854 943.485046,403.176422 943.485046,394.805878 
	C954.507324,392.080078 958.693848,395.211182 958.832153,406.075226 
	C958.887085,410.390930 959.124268,414.711426 958.990112,419.020721 
	C958.803772,425.005890 950.328064,429.889069 945.306335,426.673370 
	C944.019775,425.849518 944.089783,422.907257 943.510803,420.480774 
z"/>
<path fill="#D68D23" opacity="1.000000" stroke="none" 
	d="
M447.340271,416.589539 
	C448.456207,411.023590 449.448364,405.886810 450.440521,400.750061 
	C450.751831,400.736084 451.063171,400.722137 451.374481,400.708160 
	C453.033539,414.908691 454.692596,429.109222 456.395935,443.688904 
	C452.454285,443.688904 448.906982,443.688904 444.779785,443.688904 
	C445.603546,434.672882 446.410034,425.845795 447.340271,416.589539 
z"/>
<path fill="#D68D23" opacity="1.000000" stroke="none" 
	d="
M652.479309,404.113281 
	C654.028015,417.332794 655.502075,430.181702 657.034546,443.539154 
	C653.251587,443.539154 649.723694,443.539154 645.062561,443.539154 
	C646.896118,429.298431 648.733643,415.026947 650.571106,400.755432 
	C650.935059,400.757263 651.299011,400.759094 651.662964,400.760925 
	C651.910217,401.754852 652.157471,402.748779 652.479309,404.113281 
z"/>
<path fill="#D68D23" opacity="1.000000" stroke="none" 
	d="
M199.351898,414.328461 
	C199.369019,413.742798 199.386124,413.157166 199.769302,412.038391 
	C200.784439,410.948883 201.433502,410.392487 202.164749,409.765594 
	C202.949478,412.034576 203.603882,413.926758 204.258286,415.818909 
	C204.461273,416.675018 204.664261,417.531128 204.789520,418.885986 
	C204.711761,419.384766 204.867722,419.769287 204.867722,419.769287 
	C205.859299,426.325745 206.788025,432.892548 207.869095,439.434235 
	C208.405426,442.679535 207.311340,443.859802 203.955856,443.923981 
	C195.167160,444.092010 195.169662,444.223175 197.141129,433.056152 
	C197.357849,432.084961 197.328400,431.649078 197.298935,431.213165 
	C197.358032,430.332092 197.417114,429.451050 197.872726,427.936096 
	C198.456848,424.761749 198.644455,422.221283 198.832062,419.680786 
	C198.834167,419.248566 198.836273,418.816315 199.106232,417.869812 
	C199.366714,416.346497 199.359314,415.337494 199.351898,414.328461 
z"/>
<path fill="#C99445" opacity="1.000000" stroke="none" 
	d="
M204.303986,415.436737 
	C203.603882,413.926758 202.949478,412.034576 202.164749,409.765594 
	C201.433502,410.392487 200.784439,410.948883 199.914825,411.621826 
	C200.089432,407.701294 200.484589,403.664276 200.879745,399.627258 
	C201.328094,399.609253 201.776443,399.591278 202.224792,399.573303 
	C202.933090,404.733704 203.641388,409.894135 204.303986,415.436737 
z"/>
<path fill="#C99445" opacity="1.000000" stroke="none" 
	d="
M198.667908,420.030151 
	C198.644455,422.221283 198.456848,424.761749 198.040283,427.525055 
	C198.042114,425.291748 198.272934,422.835602 198.667908,420.030151 
z"/>
<path fill="#C99445" opacity="1.000000" stroke="none" 
	d="
M199.243134,414.659393 
	C199.359314,415.337494 199.366714,416.346497 199.213409,417.561371 
	C199.079926,416.841583 199.107132,415.915955 199.243134,414.659393 
z"/>
<path fill="#C99445" opacity="1.000000" stroke="none" 
	d="
M197.209473,431.466675 
	C197.328400,431.649078 197.357849,432.084961 197.276215,432.652466 
	C197.150101,432.429413 197.135056,432.074799 197.209473,431.466675 
z"/>
<path fill="#C99445" opacity="1.000000" stroke="none" 
	d="
M204.900787,419.640076 
	C204.867722,419.769287 204.711761,419.384766 204.761795,419.329163 
	C204.811829,419.273529 204.933838,419.510834 204.900787,419.640076 
z"/>
<path fill="#2D2928" opacity="1.000000" stroke="none" 
	d="
M704.844727,320.655212 
	C704.867126,320.877960 704.501770,320.969421 704.320801,321.022095 
	C703.273376,321.520996 702.080566,321.741211 701.590820,322.448364 
	C696.717529,329.485168 689.081238,330.792084 681.685181,330.827637 
	C627.304626,331.089203 572.922119,331.042084 518.541077,330.839661 
	C514.011780,330.822815 509.489410,328.948730 504.596283,327.843109 
	C496.842712,319.489563 495.807495,309.632996 495.870087,298.985229 
	C496.160614,249.529831 496.073853,200.071548 495.934326,150.614838 
	C495.906708,140.828857 498.111938,132.092941 505.019714,124.500542 
	C519.075378,120.429962 533.270691,122.118591 547.332275,122.059502 
	C592.629883,121.869164 637.929077,121.904625 683.226501,122.116341 
	C687.878113,122.138077 692.521423,123.928291 697.506775,125.026642 
	C698.985718,126.397446 700.126526,127.639496 701.570923,128.998886 
	C703.170166,132.861908 704.465820,136.607574 705.915283,140.693481 
	C706.058105,195.926285 706.083740,250.818893 705.969055,305.711212 
	C705.959473,310.252319 704.999573,314.791412 704.634521,319.658752 
	C704.787903,319.986084 704.822266,320.432465 704.844727,320.655212 
M506.072815,131.071884 
	C506.072815,131.071884 506.209808,131.075775 505.753204,131.376907 
	C505.532715,131.664963 505.312225,131.953018 505.118591,132.123322 
	C505.118591,132.123322 505.232452,132.163559 504.569702,132.343918 
	C504.080688,133.289230 503.591644,134.234528 503.056915,135.610886 
	C503.056915,135.610886 502.878967,136.006119 502.392273,136.369263 
	C501.940247,137.246002 501.488190,138.122742 500.992188,139.936066 
	C500.977142,196.808075 500.946503,253.680099 501.018646,310.552002 
	C501.020905,312.346649 502.082642,314.139923 502.901703,316.512207 
	C502.955383,316.715424 503.009033,316.918671 503.127228,317.621735 
	C503.417328,318.008942 503.707458,318.396149 504.156830,318.882172 
	C504.156830,318.882172 504.170746,319.069092 504.243347,319.626221 
	C504.614044,320.043854 504.984741,320.461456 505.199219,320.869720 
	C505.199219,320.869720 505.228485,320.715973 505.293671,321.435699 
	C507.597504,326.829529 512.664429,326.856537 517.163513,326.867554 
	C572.421021,327.003082 627.679077,327.002869 682.936462,326.832062 
	C685.964478,326.822723 688.986938,325.001160 692.004395,323.996246 
	C692.004395,323.996246 692.027649,324.016754 692.780762,324.024109 
	C694.870850,322.601105 697.962830,321.624329 698.837585,319.660095 
	C700.539917,315.837860 701.829651,311.465332 701.846558,307.314911 
	C702.044556,258.411774 701.975464,209.507538 701.974670,160.603592 
	C701.974548,154.449005 702.267151,148.273819 701.852844,142.146805 
	C701.556702,137.768082 700.756348,133.202911 695.962952,131.047272 
	C695.962952,131.047272 695.865967,131.165283 695.759399,130.456924 
	C693.647949,126.005821 689.617493,125.999123 685.545532,125.999794 
	C629.483032,126.008987 573.420471,126.004875 517.357971,126.012711 
	C515.862915,126.012917 514.160645,125.673004 512.919312,126.260872 
	C510.836487,127.247246 509.047089,128.853302 507.095703,130.092606 
	C507.095703,130.092606 507.204926,130.064407 506.749847,130.361954 
	C506.525757,130.644241 506.301666,130.926529 506.072815,131.071884 
z"/>
<path fill="#E49117" opacity="1.000000" stroke="none" 
	d="
M503.062683,317.121887 
	C503.009033,316.918671 502.955383,316.715424 502.841187,315.999451 
	C502.759277,315.167908 502.812988,314.862305 502.959290,314.056641 
	C503.001617,259.309631 503.031647,205.075851 503.041016,150.842072 
	C503.041748,146.686081 502.897064,142.530075 502.795654,138.076813 
	C502.807190,137.188400 502.843079,136.597260 502.878967,136.006119 
	C502.878967,136.006119 503.056915,135.610886 503.337982,135.219330 
	C504.156860,133.939713 504.694641,133.051636 505.232452,132.163559 
	C505.232452,132.163559 505.118591,132.123322 505.369751,132.074249 
	C505.817200,131.708710 506.013489,131.392242 506.209808,131.075775 
	C506.209808,131.075775 506.072815,131.071884 506.339661,131.035828 
	C506.806000,130.687988 507.005463,130.376190 507.204926,130.064407 
	C507.204926,130.064407 507.095703,130.092606 507.475586,130.005157 
	C511.866364,129.084442 515.875061,127.537689 519.888367,127.525688 
	C574.011169,127.363876 628.135132,127.326164 682.257263,127.577126 
	C686.798950,127.598175 691.329956,129.915024 695.865967,131.165283 
	C695.865967,131.165283 695.962952,131.047272 696.024902,131.423309 
	C697.354370,135.997787 699.706055,140.191315 699.725159,144.395462 
	C699.972534,198.891006 699.839844,253.388153 699.948730,307.884613 
	C699.962463,314.763062 697.960876,320.253723 692.027649,324.016754 
	C692.027649,324.016754 692.004395,323.996246 691.592896,324.075256 
	C688.395630,324.470306 685.610168,325.059265 682.824158,325.061951 
	C628.409546,325.114563 573.994690,325.046692 519.580322,325.178253 
	C514.160339,325.191345 509.424286,324.102783 505.228485,320.715973 
	C505.228485,320.715973 505.199219,320.869720 505.216614,320.593506 
	C504.879608,319.901245 504.525177,319.485168 504.170746,319.069092 
	C504.170746,319.069092 504.156830,318.882172 504.064667,318.582336 
	C503.669250,317.895630 503.365967,317.508759 503.062683,317.121887 
M651.755615,160.823502 
	C648.400696,154.932785 643.812073,150.515656 636.961670,149.146729 
	C622.646790,146.286209 610.401733,156.982895 611.848389,171.541000 
	C612.635010,179.456497 614.506531,187.275864 616.086487,195.098648 
	C620.960388,219.230759 625.353638,243.480560 631.045471,267.420288 
	C635.516602,286.225677 657.827087,295.486176 675.074036,286.795929 
	C690.814758,278.864624 697.134827,261.798309 689.671936,244.734970 
	C677.471375,216.839111 664.648804,189.215332 651.755615,160.823502 
M542.738098,235.387695 
	C542.339722,238.160767 541.414368,240.977875 541.641663,243.698685 
	C542.329712,251.937149 546.867981,257.629913 554.536682,260.555237 
	C562.334167,263.529755 569.408813,261.643677 575.255493,255.994293 
	C586.754578,244.883377 597.865662,233.366898 609.489136,222.390793 
	C613.348999,218.745880 613.863831,215.386536 611.367371,210.558792 
	C609.932922,211.906937 608.607361,213.098358 607.341858,214.350403 
	C595.261841,226.301697 583.236084,238.308167 571.100464,250.202621 
	C565.145874,256.038849 557.734375,256.222687 552.416809,250.925415 
	C547.110840,245.639648 547.313110,238.318344 553.083374,232.286957 
	C569.203003,215.437744 585.234619,198.500031 601.621582,181.914017 
	C605.459290,178.029724 605.548950,174.403702 603.098572,169.095459 
	C601.714539,170.031570 601.191956,171.721115 600.108032,172.890015 
	C592.429993,181.169647 584.693787,189.397247 576.866150,197.535675 
	C566.938110,207.857986 556.853516,218.030228 546.969604,228.394135 
	C545.292480,230.152771 544.284485,232.549606 542.738098,235.387695 
M530.143005,262.402771 
	C537.974548,264.182312 542.181519,269.395081 541.401306,276.352539 
	C540.622620,283.295105 535.313110,287.303131 527.368408,287.580261 
	C525.521301,287.644684 522.518921,289.094940 522.160706,290.461365 
	C521.301086,293.740631 524.350342,294.372345 526.895142,294.720520 
	C537.212463,296.132233 547.158630,288.209534 548.480408,277.092590 
	C549.450928,268.929871 546.142273,262.412689 539.092346,258.126678 
	C532.044128,253.841705 524.731079,253.938766 517.914612,258.483398 
	C511.105011,263.023499 508.201569,269.770538 509.422424,277.876068 
	C509.661438,279.462830 511.741608,281.848480 513.131409,281.964600 
	C516.149902,282.216858 516.461243,279.611847 516.356506,277.020782 
	C515.986267,267.858765 519.885620,263.516754 530.143005,262.402771 
M648.500549,296.999603 
	C642.231018,296.999603 635.961487,296.999603 629.818298,296.999603 
	C628.514832,303.967804 628.577026,304.075958 634.880981,304.083099 
	C652.507629,304.102997 670.134277,304.103210 687.760925,304.085541 
	C689.355408,304.083923 690.949829,303.897278 692.593506,303.793488 
	C692.593506,301.349030 692.593506,299.440430 692.593506,297.000702 
	C678.018738,297.000702 663.759460,297.000702 648.500549,296.999603 
M559.344360,247.190643 
	C563.332520,248.288025 566.363647,246.598114 566.545288,242.802841 
	C566.641174,240.798935 564.213501,237.978989 562.187683,236.845718 
	C561.081665,236.226944 557.725037,237.847687 556.640442,239.360031 
	C554.628662,242.165359 555.731567,245.012497 559.344360,247.190643 
z"/>
<path fill="#422C13" opacity="1.000000" stroke="none" 
	d="
M692.404175,324.020447 
	C697.960876,320.253723 699.962463,314.763062 699.948730,307.884613 
	C699.839844,253.388153 699.972534,198.891006 699.725159,144.395462 
	C699.706055,140.191315 697.354370,135.997787 695.962524,131.467270 
	C700.756348,133.202911 701.556702,137.768082 701.852844,142.146805 
	C702.267151,148.273819 701.974548,154.449005 701.974670,160.603592 
	C701.975464,209.507538 702.044556,258.411774 701.846558,307.314911 
	C701.829651,311.465332 700.539917,315.837860 698.837585,319.660095 
	C697.962830,321.624329 694.870850,322.601105 692.404175,324.020447 
z"/>
<path fill="#422C13" opacity="1.000000" stroke="none" 
	d="
M695.812683,130.811096 
	C691.329956,129.915024 686.798950,127.598175 682.257263,127.577126 
	C628.135132,127.326164 574.011169,127.363876 519.888367,127.525688 
	C515.875061,127.537689 511.866364,129.084442 507.494873,130.058167 
	C509.047089,128.853302 510.836487,127.247246 512.919312,126.260872 
	C514.160645,125.673004 515.862915,126.012917 517.357971,126.012711 
	C573.420471,126.004875 629.483032,126.008987 685.545532,125.999794 
	C689.617493,125.999123 693.647949,126.005821 695.812683,130.811096 
z"/>
<path fill="#422C13" opacity="1.000000" stroke="none" 
	d="
M505.261078,321.075836 
	C509.424286,324.102783 514.160339,325.191345 519.580322,325.178253 
	C573.994690,325.046692 628.409546,325.114563 682.824158,325.061951 
	C685.610168,325.059265 688.395630,324.470306 691.596680,324.088745 
	C688.986938,325.001160 685.964478,326.822723 682.936462,326.832062 
	C627.679077,327.002869 572.421021,327.003082 517.163513,326.867554 
	C512.664429,326.856537 507.597504,326.829529 505.261078,321.075836 
z"/>
<path fill="#4A2802" opacity="1.000000" stroke="none" 
	d="
M502.941772,314.569916 
	C502.812988,314.862305 502.759277,315.167908 502.715576,315.710266 
	C502.082642,314.139923 501.020905,312.346649 501.018646,310.552002 
	C500.946503,253.680099 500.977142,196.808075 501.256378,139.466766 
	C501.520569,138.997467 502.005829,138.996796 502.020691,139.465698 
	C502.024902,196.385666 502.005768,252.836761 502.043030,309.287811 
	C502.044189,311.048706 502.629028,312.809235 502.941772,314.569916 
z"/>
<path fill="#422C13" opacity="1.000000" stroke="none" 
	d="
M502.005829,138.996796 
	C502.005829,138.996796 501.520569,138.997467 501.278381,138.998474 
	C501.488190,138.122742 501.940247,137.246002 502.635620,136.187683 
	C502.843079,136.597260 502.807190,137.188400 502.578369,138.215103 
	C502.258911,138.766037 502.132385,138.881424 502.005829,138.996796 
z"/>
<path fill="#422C13" opacity="1.000000" stroke="none" 
	d="
M504.901062,132.253738 
	C504.694641,133.051636 504.156860,133.939713 503.360840,135.003815 
	C503.591644,134.234528 504.080688,133.289230 504.901062,132.253738 
z"/>
<path fill="#4A2802" opacity="1.000000" stroke="none" 
	d="
M503.094971,317.371826 
	C503.365967,317.508759 503.669250,317.895630 503.985046,318.532959 
	C503.707458,318.396149 503.417328,318.008942 503.094971,317.371826 
z"/>
<path fill="#4A2802" opacity="1.000000" stroke="none" 
	d="
M504.207031,319.347656 
	C504.525177,319.485168 504.879608,319.901245 505.294739,320.598206 
	C504.984741,320.461456 504.614044,320.043854 504.207031,319.347656 
z"/>
<path fill="#422C13" opacity="1.000000" stroke="none" 
	d="
M505.981506,131.226349 
	C506.013489,131.392242 505.817200,131.708710 505.356323,132.133118 
	C505.312225,131.953018 505.532715,131.664963 505.981506,131.226349 
z"/>
<path fill="#422C13" opacity="1.000000" stroke="none" 
	d="
M506.977386,130.213181 
	C507.005463,130.376190 506.806000,130.687988 506.342041,131.104294 
	C506.301666,130.926529 506.525757,130.644241 506.977386,130.213181 
z"/>
<path fill="#3A2C1D" opacity="1.000000" stroke="none" 
	d="
M651.922119,161.150146 
	C664.648804,189.215332 677.471375,216.839111 689.671936,244.734970 
	C697.134827,261.798309 690.814758,278.864624 675.074036,286.795929 
	C657.827087,295.486176 635.516602,286.225677 631.045471,267.420288 
	C625.353638,243.480560 620.960388,219.230759 616.086487,195.098648 
	C614.506531,187.275864 612.635010,179.456497 611.848389,171.541000 
	C610.401733,156.982895 622.646790,146.286209 636.961670,149.146729 
	C643.812073,150.515656 648.400696,154.932785 651.922119,161.150146 
M676.335632,232.242203 
	C675.501465,230.427246 674.660217,228.615540 673.834290,226.796844 
	C664.475098,206.189178 655.198608,185.543396 645.719238,164.991165 
	C642.183411,157.325104 635.333069,154.195877 628.202515,156.428207 
	C621.315857,158.584167 617.837463,164.809357 619.037781,173.162598 
	C619.557800,176.781326 620.382507,180.357452 621.103455,183.945969 
	C626.348022,210.048706 631.414124,236.189270 636.921265,262.236542 
	C640.286499,278.152954 654.190674,286.319458 668.750854,281.561035 
	C683.164612,276.850464 689.336426,261.972107 683.004211,247.042526 
	C680.989990,242.293610 678.787842,237.624405 676.335632,232.242203 
z"/>
<path fill="#392B1C" opacity="1.000000" stroke="none" 
	d="
M542.852722,235.019653 
	C544.284485,232.549606 545.292480,230.152771 546.969604,228.394135 
	C556.853516,218.030228 566.938110,207.857986 576.866150,197.535675 
	C584.693787,189.397247 592.429993,181.169647 600.108032,172.890015 
	C601.191956,171.721115 601.714539,170.031570 603.098572,169.095459 
	C605.548950,174.403702 605.459290,178.029724 601.621582,181.914017 
	C585.234619,198.500031 569.203003,215.437744 553.083374,232.286957 
	C547.313110,238.318344 547.110840,245.639648 552.416809,250.925415 
	C557.734375,256.222687 565.145874,256.038849 571.100464,250.202621 
	C583.236084,238.308167 595.261841,226.301697 607.341858,214.350403 
	C608.607361,213.098358 609.932922,211.906937 611.367371,210.558792 
	C613.863831,215.386536 613.348999,218.745880 609.489136,222.390793 
	C597.865662,233.366898 586.754578,244.883377 575.255493,255.994293 
	C569.408813,261.643677 562.334167,263.529755 554.536682,260.555237 
	C546.867981,257.629913 542.329712,251.937149 541.641663,243.698685 
	C541.414368,240.977875 542.339722,238.160767 542.852722,235.019653 
z"/>
<path fill="#3A2C1D" opacity="1.000000" stroke="none" 
	d="
M529.759277,262.354980 
	C519.885620,263.516754 515.986267,267.858765 516.356506,277.020782 
	C516.461243,279.611847 516.149902,282.216858 513.131409,281.964600 
	C511.741608,281.848480 509.661438,279.462830 509.422424,277.876068 
	C508.201569,269.770538 511.105011,263.023499 517.914612,258.483398 
	C524.731079,253.938766 532.044128,253.841705 539.092346,258.126678 
	C546.142273,262.412689 549.450928,268.929871 548.480408,277.092590 
	C547.158630,288.209534 537.212463,296.132233 526.895142,294.720520 
	C524.350342,294.372345 521.301086,293.740631 522.160706,290.461365 
	C522.518921,289.094940 525.521301,287.644684 527.368408,287.580261 
	C535.313110,287.303131 540.622620,283.295105 541.401306,276.352539 
	C542.181519,269.395081 537.974548,264.182312 529.759277,262.354980 
z"/>
<path fill="#392B1C" opacity="1.000000" stroke="none" 
	d="
M649.000366,297.000153 
	C663.759460,297.000702 678.018738,297.000702 692.593506,297.000702 
	C692.593506,299.440430 692.593506,301.349030 692.593506,303.793488 
	C690.949829,303.897278 689.355408,304.083923 687.760925,304.085541 
	C670.134277,304.103210 652.507629,304.102997 634.880981,304.083099 
	C628.577026,304.075958 628.514832,303.967804 629.818298,296.999603 
	C635.961487,296.999603 642.231018,296.999603 649.000366,297.000153 
z"/>
<path fill="#C99445" opacity="1.000000" stroke="none" 
	d="
M502.020691,139.465698 
	C502.132385,138.881424 502.258911,138.766037 502.602722,138.512360 
	C502.897064,142.530075 503.041748,146.686081 503.041016,150.842072 
	C503.031647,205.075851 503.001617,259.309631 502.959290,314.056641 
	C502.629028,312.809235 502.044189,311.048706 502.043030,309.287811 
	C502.005768,252.836761 502.024902,196.385666 502.020691,139.465698 
z"/>
<path fill="#3A2C1D" opacity="1.000000" stroke="none" 
	d="
M559.004028,247.075012 
	C555.731567,245.012497 554.628662,242.165359 556.640442,239.360031 
	C557.725037,237.847687 561.081665,236.226944 562.187683,236.845718 
	C564.213501,237.978989 566.641174,240.798935 566.545288,242.802841 
	C566.363647,246.598114 563.332520,248.288025 559.004028,247.075012 
z"/>
<path fill="#E2911A" opacity="1.000000" stroke="none" 
	d="
M676.503662,232.580444 
	C678.787842,237.624405 680.989990,242.293610 683.004211,247.042526 
	C689.336426,261.972107 683.164612,276.850464 668.750854,281.561035 
	C654.190674,286.319458 640.286499,278.152954 636.921265,262.236542 
	C631.414124,236.189270 626.348022,210.048706 621.103455,183.945969 
	C620.382507,180.357452 619.557800,176.781326 619.037781,173.162598 
	C617.837463,164.809357 621.315857,158.584167 628.202515,156.428207 
	C635.333069,154.195877 642.183411,157.325104 645.719238,164.991165 
	C655.198608,185.543396 664.475098,206.189178 673.834290,226.796844 
	C674.660217,228.615540 675.501465,230.427246 676.503662,232.580444 
M654.263916,274.535706 
	C667.927673,278.652130 680.123962,269.673370 678.602966,256.617584 
	C677.625488,248.226578 671.137512,241.702240 663.032837,240.960068 
	C654.222473,240.153305 646.938232,244.955750 644.312988,253.301895 
	C641.741455,261.477631 645.302979,269.484558 654.263916,274.535706 
M636.319763,163.997162 
	C631.006226,162.075104 627.132446,163.528488 625.989990,167.872726 
	C625.023438,171.547928 627.316650,175.794266 631.114075,175.980392 
	C633.390076,176.091980 636.464050,175.008514 637.921265,173.354050 
	C640.362793,170.582260 639.589600,167.188538 636.319763,163.997162 
z"/>
<path fill="#3A2C1D" opacity="1.000000" stroke="none" 
	d="
M653.925903,274.344391 
	C645.302979,269.484558 641.741455,261.477631 644.312988,253.301895 
	C646.938232,244.955750 654.222473,240.153305 663.032837,240.960068 
	C671.137512,241.702240 677.625488,248.226578 678.602966,256.617584 
	C680.123962,269.673370 667.927673,278.652130 653.925903,274.344391 
M666.428955,267.192017 
	C670.880432,264.257568 672.301331,260.080292 670.840210,255.120712 
	C669.671692,251.154236 666.760315,248.705856 662.596069,248.169159 
	C658.058411,247.584320 654.379333,249.237473 652.132385,253.280426 
	C649.892578,257.310486 650.322205,261.387421 653.253174,264.875580 
	C656.630432,268.894714 660.945801,269.760162 666.428955,267.192017 
z"/>
<path fill="#392B1C" opacity="1.000000" stroke="none" 
	d="
M636.659912,164.215790 
	C639.589600,167.188538 640.362793,170.582260 637.921265,173.354050 
	C636.464050,175.008514 633.390076,176.091980 631.114075,175.980392 
	C627.316650,175.794266 625.023438,171.547928 625.989990,167.872726 
	C627.132446,163.528488 631.006226,162.075104 636.659912,164.215790 
z"/>
<path fill="#DE8F1C" opacity="1.000000" stroke="none" 
	d="
M666.111572,267.400116 
	C660.945801,269.760162 656.630432,268.894714 653.253174,264.875580 
	C650.322205,261.387421 649.892578,257.310486 652.132385,253.280426 
	C654.379333,249.237473 658.058411,247.584320 662.596069,248.169159 
	C666.760315,248.705856 669.671692,251.154236 670.840210,255.120712 
	C672.301331,260.080292 670.880432,264.257568 666.111572,267.400116 
z"/>
</svg>